<svg xmlns="http://www.w3.org/2000/svg" xmlns:xlink="http://www.w3.org/1999/xlink" width="500" zoomAndPan="magnify" viewBox="0 0 375 374.999991" height="500" preserveAspectRatio="xMidYMid meet" version="1.2"><defs><clipPath id="f03b22ca0e"><path d="M 187.5 0 C 83.945312 0 0 83.945312 0 187.5 C 0 291.054688 83.945312 375 187.5 375 C 291.054688 375 375 291.054688 375 187.5 C 375 83.945312 291.054688 0 187.5 0 Z M 187.5 0 "/></clipPath></defs><g id="94c9d4c7e6"><g clip-rule="nonzero" clip-path="url(#f03b22ca0e)"><rect x="0" width="375" y="0" height="374.999991" style="fill:#000000;fill-opacity:1;stroke:none;"/></g><path style=" stroke:none;fill-rule:evenodd;fill:#ffffff;fill-opacity:1;" d="M 53.101562 187.5 C 89.175781 151.425781 125.25 115.351562 161.398438 79.199219 L 161.398438 26.101562 C 107.625 79.875 53.773438 133.726562 0 187.5 C 53.773438 241.273438 107.625 295.125 161.398438 348.898438 L 161.398438 295.800781 C 125.324219 259.726562 89.175781 223.574219 53.101562 187.5 Z M 268.800781 187.5 L 242.25 160.949219 C 224.023438 179.175781 205.800781 197.398438 187.5 215.699219 L 159.300781 187.5 C 186.375 160.425781 213.523438 133.273438 240.601562 106.199219 C 267.675781 133.273438 294.824219 160.351562 321.898438 187.5 C 285.976562 223.425781 249.976562 259.425781 214.050781 295.351562 L 187.5 268.800781 C 214.574219 241.726562 241.726562 214.574219 268.800781 187.5 Z M 187.5 268.800781 L 187.5 375 C 249.976562 312.523438 312.523438 249.976562 375 187.5 C 312.523438 125.023438 249.976562 62.476562 187.5 0 L 187.5 106.199219 C 160.425781 133.273438 133.273438 160.351562 106.199219 187.5 C 133.726562 215.023438 160.351562 241.574219 187.5 268.800781 Z M 187.5 268.800781 "/><path style=" stroke:none;fill-rule:evenodd;fill:#ffffff;fill-opacity:1;" d="M 53.101562 187.5 C 89.175781 151.425781 125.25 115.351562 161.398438 79.199219 L 161.398438 26.101562 C 107.625 79.875 53.773438 133.726562 0 187.5 C 53.773438 241.273438 107.625 295.125 161.398438 348.898438 L 161.398438 295.800781 C 125.324219 259.726562 89.175781 223.574219 53.101562 187.5 Z M 268.800781 187.5 L 242.25 160.949219 C 224.023438 179.175781 205.800781 197.398438 187.5 215.699219 L 159.300781 187.5 C 186.375 160.425781 213.523438 133.273438 240.601562 106.199219 C 267.675781 133.273438 294.824219 160.351562 321.898438 187.5 C 285.976562 223.425781 249.976562 259.425781 214.050781 295.351562 L 187.5 268.800781 C 214.574219 241.726562 241.726562 214.574219 268.800781 187.5 Z M 187.5 268.800781 L 187.5 375 C 249.976562 312.523438 312.523438 249.976562 375 187.5 C 312.523438 125.023438 249.976562 62.476562 187.5 0 L 187.5 106.199219 C 160.425781 133.273438 133.273438 160.351562 106.199219 187.5 C 133.726562 215.023438 160.351562 241.574219 187.5 268.800781 Z M 187.5 268.800781 "/></g></svg>